<?xml version="1.0" encoding="utf-8"?>
<svg id="svg2" viewBox="0 0 500 670" xmlns="http://www.w3.org/2000/svg">
  <desc>Source: openclipart.org/detail/209545</desc>
  <path fill="hsl(45, 100%, 72%)" d="M 109.521 55.377 L 109.521 68.398 C 109.521 75.559 116.054 81.419 124.039 81.419 L 196.628 81.419 C 204.613 81.419 211.146 75.559 211.146 68.398 L 211.146 55.377 L 109.521 55.377 Z M 95.004 87.929 L 95.004 146.524 C 95.004 160.847 108.07 172.566 124.039 172.566 L 167.593 172.566 C 183.562 172.566 196.628 160.847 196.628 146.524 L 196.628 87.929 L 95.004 87.929 Z M 196.628 146.524 C 196.628 153.685 190.095 159.545 182.11 159.545 L 124.039 159.545 C 116.054 159.545 109.521 153.685 109.521 146.524 L 109.521 100.95 L 196.628 100.95 L 196.628 146.524 Z" style="stroke-width: 1;"/>
  <path fill="hsl(45, 100%, 72%)" d="M 191.609 109.834 L 203.332 109.834 L 203.332 143.261 L 191.609 143.261 L 191.609 109.834 Z" style="stroke-width: 1;"/>
</svg>