<?xml version="1.0" encoding="utf-8"?>
<svg id="svg2" viewBox="0 0 500 670" xmlns="http://www.w3.org/2000/svg">
  <desc>Source: openclipart.org/detail/209545</desc>
  <path fill="hsl(45, 100%, 72%)" d="M 292.32 78.22 C 266.625 78.22 245.601 98.6 245.601 123.509 C 245.601 148.417 266.625 168.797 292.32 168.797 C 318.015 168.797 339.039 148.417 339.039 123.509 C 339.039 98.6 318.015 78.22 292.32 78.22 Z M 292.32 159.739 C 271.764 159.739 254.945 143.436 254.945 123.509 C 254.945 103.582 271.764 87.278 292.32 87.278 C 312.876 87.278 329.695 103.582 329.695 123.509 C 329.695 143.436 312.876 159.739 292.32 159.739 Z" style="stroke-width: 1;"/>
  <path fill="hsl(45, 100%, 72%)" d="M 292.32 96.336 C 276.903 96.336 264.289 108.564 264.289 123.509 C 264.289 138.454 276.903 150.682 292.32 150.682 C 307.737 150.682 320.351 138.454 320.351 123.509 C 320.351 108.564 307.737 96.336 292.32 96.336 Z M 292.32 141.624 C 282.042 141.624 273.632 133.472 273.632 123.509 C 273.632 113.545 282.042 105.393 292.32 105.393 C 302.598 105.393 311.007 113.545 311.007 123.509 C 311.007 133.472 302.598 141.624 292.32 141.624 Z" style="stroke-width: 1;"/>
  <circle fill="hsl(45, 100%, 72%)" cx="329.039" cy="158.797" r="2" style="stroke-width: 1;" transform="matrix(4.671889, 0, 0, 4.528825, -1244.913855, -595.655047)"/>
  <path fill="hsl(45, 100%, 72%)" d="M 275.968 107.658 L 266.625 98.6 L 273.165 92.26 L 282.509 101.318 L 275.968 107.658 Z" style="stroke-width: 1;"/>
  <path fill="hsl(45, 100%, 72%)" d="M 308.672 107.658 L 318.015 98.6 L 311.475 92.26 L 302.131 101.318 L 308.672 107.658 Z" style="stroke-width: 1;"/>
  <path fill="hsl(45, 100%, 72%)" d="M 275.968 139.36 L 266.625 148.417 L 273.165 154.758 L 282.509 145.7 L 275.968 139.36 Z" style="stroke-width: 1;"/>
  <path fill="hsl(45, 100%, 72%)" d="M 308.672 139.36 L 318.015 148.417 L 311.475 154.758 L 302.131 145.7 L 308.672 139.36 Z" style="stroke-width: 1;"/>
</svg>